<?xml version="1.0" encoding="utf-8"?>
<!-- Generator: Adobe Illustrator 27.1.1, SVG Export Plug-In . SVG Version: 6.00 Build 0)  -->
<svg version="1.1" id="Capa_1" xmlns="http://www.w3.org/2000/svg" xmlns:xlink="http://www.w3.org/1999/xlink" x="0px" y="0px"
	 viewBox="0 0 520 520" style="enable-background:new 0 0 520 520;" xml:space="preserve">
<style type="text/css">
	.st0{fill-rule:evenodd;clip-rule:evenodd;fill:url(#SVGID_1_);}
	.st1{fill-rule:evenodd;clip-rule:evenodd;fill:#FFFFFF;}
</style>
<g>
	<linearGradient id="SVGID_1_" gradientUnits="userSpaceOnUse" x1="265.8023" y1="40.4694" x2="265.8023" y2="470.328">
		<stop  offset="0" style="stop-color:#00C13E"/>
		<stop  offset="1" style="stop-color:#008530"/>
	</linearGradient>
	<path class="st0" d="M265.8,40.5c-119.5,0-216.6,96.4-216.6,214.9c0,47,15.3,90.6,41.3,126l-27,79.8l83.2-26.4
		c34.2,22.4,75.2,35.5,119.2,35.5c119.4,0,216.6-96.4,216.6-214.9C482.4,136.9,385.2,40.5,265.8,40.5L265.8,40.5z"/>
	<g>
		<path class="st1" d="M510,253.6c0,134.5-109.9,243.5-245.4,243.5c-43,0-83.5-11-118.7-30.3L10,510l44.3-130.7
			c-22.4-36.7-35.2-79.8-35.2-125.8C19.1,119,129,10,264.6,10C400.1,10,510,119,510,253.6L510,253.6z M264.6,48.8
			c-113.8,0-206.4,91.8-206.4,204.8c0,44.8,14.6,86.3,39.3,120.1l-25.8,76l79.3-25.2c32.6,21.4,71.6,33.9,113.5,33.9
			c113.8,0,206.4-91.9,206.4-204.8C470.9,140.6,378.3,48.8,264.6,48.8L264.6,48.8z M388.5,309.7c-1.5-2.5-5.5-4-11.5-7
			c-6-3-35.6-17.4-41.1-19.4c-5.5-2-9.5-3-13.5,3c-4,6-15.5,19.4-19.1,23.4c-3.5,4-7,4.5-13,1.5c-6-3-25.4-9.3-48.4-29.6
			c-17.9-15.8-30-35.4-33.5-41.3c-3.5-6-0.3-9.2,2.6-12.2c2.7-2.7,6-7,9-10.4c3-3.5,4-6,6-10c2-4,1-7.5-0.5-10.4
			c-1.5-3-13.5-32.4-18.6-44.3c-5-11.9-10-11.5-13.5-11.5c-3.5,0-10,1-10,1s-12.1,1.5-17.6,7.5c-5.5,6-21,20.4-21,49.8
			c0,29.4,21.5,57.8,24.5,61.7c3,4,41.6,66.2,102.8,90.1c61.2,23.9,61.2,15.9,72.2,14.9c11-1,35.6-14.4,40.6-28.4
			C390,324.1,390,312.1,388.5,309.7L388.5,309.7z M388.5,309.7"/>
	</g>
</g>
</svg>
