<?xml version="1.0" encoding="utf-8"?>
<!-- Generator: Adobe Illustrator 27.1.1, SVG Export Plug-In . SVG Version: 6.00 Build 0)  -->
<svg version="1.1" id="Capa_1" xmlns="http://www.w3.org/2000/svg" xmlns:xlink="http://www.w3.org/1999/xlink" x="0px" y="0px"
	 viewBox="0 0 520 420" style="enable-background:new 0 0 520 420;" xml:space="preserve">
<style type="text/css">
	.st0{fill:#FFFFFF;}
	.st1{fill:#9C9B9B;}
	.st2{fill:#1D1D1B;}
	.st3{fill:#D67B0F;}
	.st4{fill:#F1F1F1;}
	.st5{fill:#FBBC0B;}
	.st6{fill:#3C3C3B;}
	.st7{fill:url(#SVGID_1_);}
	.st8{fill:url(#SVGID_00000007423411524864405480000013744293285059569030_);}
	.st9{fill:url(#SVGID_00000095302009135024270710000004697025305157075856_);}
	.st10{fill:url(#SVGID_00000120519077169953500530000011725671092192873107_);}
	.st11{fill:url(#SVGID_00000065760356419664945540000008189395318685415569_);}
	.st12{fill:url(#SVGID_00000129893943344746525750000011228414453020707229_);}
	.st13{fill:url(#SVGID_00000135688091797658239600000018284785218536171414_);}
	.st14{fill:#B1B1B1;}
</style>
<g>
	<path class="st0" d="M513,315.9c0.1-0.9,0.2-1.9,0.1-2.8c-0.4-8.6-7.4-15.2-16-15.1l-28.5,0.4c8-11,12.3-24.3,12.3-38.7
		c0-18.8-7.4-36-20.9-48.3c-3.7-3.4-7.8-6.3-12.3-8.8c10.7-10.1,20.3-24.6,16.3-48.2c-0.3-1.4-2.6-14.1-9.2-25.1c0-0.5,0-1.3,0-1.7
		c0.1-0.4,0.1-0.9,0.2-1.3l0.5-5.1c0.1-0.7,0.1-1.4,0.1-2.1c-0.3-10.2-8.6-17.9-18.7-17.8c-7.7,0.2-14.7,5.4-19.3,11.9
		c-0.4-2.9-1.2-5.9-2.6-8.7c2.1-11.5-1-23.6-8.4-32.6c-8.2-10-20.5-15.3-33.2-14.6c-8-7.7-16.9-14.4-26.6-20
		c-4.2-19.2-21.4-33.4-41.5-33.4c-10.6,0-20.7,3.9-28.5,11L61.5,157.4c-2.6,1.7-4.6,4.1-5.8,6.9C45.2,170,38.5,181,38.5,193.4v3.9
		c0,10,4.7,19.5,12.3,25.7V262c-7.6,6.3-12.3,15.8-12.3,25.7v3.8c0,2.3,0.2,4.5,0.7,6.7L22.3,298c-0.1,0-0.2,0-0.3,0
		c-8.5,0-15.4,6.7-15.8,15.1c0,0.9,0,1.9,0.1,2.8c-0.1,0.5-0.1,1-0.1,1.5c-0.4,8.6,6.1,15.8,14.7,16.4l47.8,3.3
		c-0.8,2.2-1.2,4.7-1.2,7.2c0,2,0.2,3.8,0.7,5.6c-0.5,1.5-0.7,3.1-0.7,4.8c0,0.8,0,1.6,0.1,2.4c-1.6,0.8-3.1,1.9-4.5,3.1
		c-4.9,2.7-8.1,8-8.1,13.8v3c0,5.8,3.1,11.1,8.1,13.8c3.8,3.5,8.8,5.4,14,5.4h8.6c1.9,0,3.7-0.2,5.5-0.7c1.8,0.5,3.6,0.7,5.5,0.7
		h8.6c2.1,0,4.2-0.3,6.2-1c2,0.6,4.1,1,6.3,1h8.6c1.9,0,3.7-0.2,5.5-0.7c1.8,0.5,3.6,0.7,5.5,0.7h8.6c2.1,0,4.2-0.3,6.2-1
		c2,0.6,4.1,1,6.3,1h8.6c1.9,0,3.7-0.2,5.5-0.7c1.8,0.5,3.6,0.7,5.5,0.7h8.6c2.1,0,4.2-0.3,6.2-1c2,0.6,4.1,1,6.3,1h8.6
		c1.9,0,3.7-0.2,5.5-0.7c1.8,0.5,3.6,0.7,5.5,0.7h8.6c3.3,0,6.6-0.8,9.5-2.3l8.9,15.1c2.8,4.8,8,7.8,13.6,7.8c5.6,0,10.8-3,13.6-7.8
		l8.9-15.2c2.9,1.5,6.2,2.3,9.5,2.3h8.6c1.9,0,3.7-0.2,5.5-0.7c1.8,0.5,3.6,0.7,5.5,0.7h8.6c2.1,0,4.2-0.3,6.2-1c2,0.6,4.1,1,6.3,1
		h8.6c1.9,0,3.7-0.2,5.5-0.7c1.8,0.5,3.6,0.7,5.5,0.7h8.6c2.1,0,4.2-0.3,6.2-1c2,0.6,4.1,1,6.3,1h8.6c1.9,0,3.7-0.2,5.5-0.7
		c1.8,0.5,3.6,0.7,5.5,0.7h8.6c2.1,0,4.2-0.3,6.2-1c2,0.6,4.1,1,6.3,1h8.6c1.9,0,3.7-0.2,5.5-0.7c1.8,0.5,3.6,0.7,5.5,0.7h8.6
		c5.3,0,10.4-2,14.2-5.6c4.8-2.8,7.8-8,7.8-13.6v-3c0-5.7-3-10.8-7.8-13.6c-1.4-1.3-3-2.4-4.7-3.3v-14.3c0-2-0.4-4-1.1-5.7l47.7-3.3
		c8.6-0.6,15-7.8,14.7-16.4C513.1,316.9,513.1,316.4,513,315.9z M280,204.4c-0.4,0-0.7,0-1.1,0c-11.3-7.1-25.1-10.9-39.4-10.9
		c-1.6,0-3.1,0-4.7,0.1v-0.2c0-8.9-3.6-17.2-9.5-23.3l103.4-88.1c2.7,1.8,5.3,3.8,7.8,5.9c-3,12.1-0.2,24.9,8,34.9
		c4,4.9,9.1,8.7,14.8,11.3c-2.3,5.2-5.2,13.5-6.4,23c-2.2,16.6,1.3,31.1,10.1,41.9c0.1,0.1,0.1,0.2,0.2,0.3
		c-7.7-3.8-16.6-5.8-26.4-5.8c-4.5,0-8.9,0.4-13.1,1.3c-3-0.9-6-1.3-9.2-1.3h-3.8c-8.1,0-15.8,2.9-21.9,8.3
		C287.3,202.8,282,204.4,280,204.4z"/>
	<g>
		<polygon class="st1" points="280.5,321 259.7,354.2 238.9,321 22,318.1 219,331.8 259.7,401.2 300.4,331.8 497.4,318.1 		"/>
		<g>
			<g>
				<path class="st2" d="M91.4,361.3c-4.6,0-8.1-2.5-8.1-6.6h4c0.2,1.9,1.5,3.4,4.1,3.4c2.6,0,4.1-1.4,4.1-3.4
					c0-5.6-12.2-2-12.2-10.4c0-4,3.2-6.5,7.9-6.5c4.4,0,7.5,2.3,7.8,6.2h-4.2c-0.1-1.6-1.5-3-3.9-3c-2.2-0.1-3.9,1-3.9,3.2
					c0,5.2,12.2,2,12.2,10.3C99.3,358,96.5,361.3,91.4,361.3z"/>
				<path class="st2" d="M111.6,361.4c-5.2,0-9.1-3.7-9.1-9.4c0-5.7,3.7-9.4,9.1-9.4c5.2,0,8.9,3.6,8.9,9c0,0.6,0,1.2-0.1,1.9h-13.9
					c0.3,3,2.4,4.8,5.2,4.8c2.3,0,3.6-1.1,4.3-2.5h4.1C119,358.8,116.1,361.4,111.6,361.4z M106.5,350.3h10.1
					c-0.1-2.8-2.3-4.6-5.1-4.6C108.9,345.8,106.9,347.5,106.5,350.3z"/>
				<path class="st2" d="M128,361.1h-3.8v-18.2h3.8v2.6c1.1-1.8,2.9-2.9,5.5-2.9v3.9h-1c-2.8,0-4.5,1.2-4.5,5V361.1z"/>
				<path class="st2" d="M138.8,342.9l5.2,14.8l5.2-14.8h4l-6.9,18.2h-4.5l-6.9-18.2H138.8z"/>
				<path class="st2" d="M155.4,338.1c0-1.4,1.1-2.4,2.4-2.4c1.3,0,2.4,1.1,2.4,2.4s-1.1,2.4-2.4,2.4
					C156.5,340.5,155.4,339.4,155.4,338.1z M155.9,342.9h3.8v18.2h-3.8V342.9z"/>
				<path class="st2" d="M172.3,342.6c4.5,0,7.4,2.2,8.4,6h-4.1c-0.6-1.8-2.1-2.9-4.3-2.9c-3,0-5.1,2.2-5.1,6.2c0,4,2,6.2,5.1,6.2
					c2.2,0,3.6-1,4.3-2.9h4.1c-1,3.6-3.9,6.1-8.4,6.1c-5.2,0-8.9-3.7-8.9-9.4C163.4,346.3,167.1,342.6,172.3,342.6z"/>
				<path class="st2" d="M184,338.1c0-1.4,1.1-2.4,2.4-2.4c1.3,0,2.4,1.1,2.4,2.4s-1.1,2.4-2.4,2.4C185.1,340.5,184,339.4,184,338.1
					z M184.5,342.9h3.8v18.2h-3.8V342.9z"/>
				<path class="st2" d="M201.1,361.4c-5.2,0-9.1-3.7-9.1-9.4c0-5.7,4.1-9.4,9.3-9.4c5.2,0,9.3,3.7,9.3,9.4
					C210.6,357.7,206.4,361.4,201.1,361.4z M201.1,358.1c2.8,0,5.6-2,5.6-6.1c0-4.1-2.7-6.1-5.5-6.1c-2.8,0-5.4,2-5.4,6.1
					C195.9,356.1,198.3,358.1,201.1,358.1z"/>
			</g>
			<g>
				<path class="st2" d="M314.9,342.6c2.4,0,4.9,1.1,6.3,2.8v-8.8h3.8v24.5h-3.8v-2.7c-1.2,1.7-3.3,3-6.3,3c-4.8,0-8.6-3.9-8.6-9.5
					C306.3,346.3,310.1,342.6,314.9,342.6z M315.6,345.9c-2.8,0-5.5,2.1-5.5,6.1c0,3.9,2.7,6.2,5.5,6.2c2.8,0,5.5-2.2,5.5-6.1
					C321.2,348.1,318.5,345.9,315.6,345.9z"/>
				<path class="st2" d="M337.8,361.4c-5.2,0-9.1-3.7-9.1-9.4c0-5.7,3.7-9.4,9.1-9.4c5.2,0,8.9,3.6,8.9,9c0,0.6,0,1.2-0.1,1.9h-13.9
					c0.3,3,2.4,4.8,5.2,4.8c2.3,0,3.6-1.1,4.3-2.5h4.1C345.1,358.8,342.2,361.4,337.8,361.4z M332.6,350.3h10.1
					c-0.1-2.8-2.3-4.6-5.1-4.6C335.1,345.8,333,347.5,332.6,350.3z"/>
				<path class="st2" d="M380.1,344.7h-4.5c-1.2-2.3-3.4-3.5-6.1-3.5c-4.6,0-7.9,3.2-7.9,8.3c0,5.1,3.3,8.3,7.9,8.3
					c4.2,0,6.8-2.5,7.3-6.4h-8.6v-3h12.7v2.9c-0.7,5.3-5.2,9.9-11.4,9.9c-6.5,0-11.7-4.8-11.7-11.7c0-6.9,5.3-11.7,11.7-11.7
					C374.2,337.8,378.3,340.2,380.1,344.7z"/>
				<path class="st2" d="M388.3,361.1h-3.8v-18.2h3.8v2.6c1.1-1.8,2.9-2.9,5.5-2.9v3.9h-1c-2.8,0-4.5,1.2-4.5,5V361.1z"/>
				<path class="st2" d="M413.7,361.1h-3.8v-2.2c-1.2,1.6-3.2,2.4-5.4,2.4c-4.3,0-7.5-2.7-7.5-7.8v-10.7h3.7V353
					c0,3.3,1.8,5.1,4.6,5.1c2.8,0,4.6-1.7,4.6-5.1v-10.1h3.8V361.1z M408.9,334.8v3.2l-7.3,3.6v-2.8L408.9,334.8z"/>
				<path class="st2" d="M426,342.6c3.1,0,5.2,1.5,6.3,2.9v-2.6h3.8v18.2h-3.8v-2.7c-1.2,1.6-3.3,3-6.4,3c-4.7,0-8.5-3.9-8.5-9.5
					C417.4,346.3,421.2,342.6,426,342.6z M426.8,345.9c-2.8,0-5.5,2.1-5.5,6.1c0,3.9,2.7,6.2,5.5,6.2c2.8,0,5.5-2.2,5.5-6.1
					C432.3,348.1,429.6,345.9,426.8,345.9z"/>
			</g>
		</g>
		<polygon points="280.5,316.7 259.7,349.9 238.9,316.7 22,313.8 219,327.5 259.7,396.9 300.4,327.5 497.4,313.8 		"/>
		<g>
			<path class="st3" d="M449.4,223L449.4,223c-9.7-8.9-23.2-13.8-38-13.8c-14.8,0-28.3,4.9-38,13.8c-1.1,1-2.1,2-3.1,3.1
				c-7.2-11.1-18.7-16.9-33.4-16.9c-5,0-9.7,0.7-14.1,2c-2.5-1.3-5.3-2-8.1-2h-3.8c-4.2,0-8.3,1.5-11.5,4.4
				c-4.5,4-14.5,6.6-19.3,6.6c-1.7,0-3.4,0.3-5,0.8c-9.5-7.6-22-11.7-35.5-11.7c-12.7,0-24.4,3.6-33.6,10.2v-5.3
				c7.5-1.9,13.2-8.8,13.2-16.9v-3.9c0-9.6-7.8-17.4-17.4-17.4h-37c-6.6,0-12.5,3.6-15.5,9.5l-13,25.5l-12.9-25.4
				c-3-5.9-8.9-9.5-15.5-9.5H71.7c-9.6,0-17.4,7.8-17.4,17.4v3.9c0,7.7,5.2,14.4,12.3,16.6v57.1c-7.1,2.2-12.3,8.9-12.3,16.6v3.8
				c0,9.6,7.8,17.4,17.4,17.4h31.9c9.4,0,17-7.5,17.4-16.8c0.9,0.2,1.9,0.2,2.8,0.2h5.6c1.6,0,3.2-0.2,4.8-0.7
				c0.1,9.5,7.9,17.2,17.4,17.2h50.2c4.3,0,8.5-1.6,11.7-4.5c7.8,3.8,16.8,5.8,26.2,5.8c10.1,0,19.7-2.3,27.9-6.7
				c3.3,3.4,7.8,5.4,12.6,5.4h46.1c0.9,0,1.8-0.1,2.7-0.2c0.9,0.1,1.8,0.2,2.7,0.2h45c3.9,0,7.6-1.3,10.7-3.7
				c7.4,3.3,15.6,4.9,24.4,4.9c14.7,0,28.2-4.9,38-13.8c10.1-9.3,15.7-22.3,15.7-36.6S459.5,232.3,449.4,223z"/>
			<path d="M446.7,224.4c-9-8.2-21.5-12.8-35.3-12.8c-13.8,0-26.3,4.5-35.4,12.8c-2.4,2.2-4.5,4.6-6.4,7.3
				c-7.5-16.2-21.3-20-32.8-20c-5.2,0-10.1,0.8-14.6,2.4c-2.2-1.5-4.8-2.4-7.6-2.4h-3.8c-3.3,0-6.4,1.2-8.9,3.4
				c-5.5,4.9-16.5,7.6-22,7.6c-2,0-4,0.5-5.8,1.3c-9-7.9-21.2-12.3-34.7-12.3c-13.8,0-26.3,4.5-35.4,12.8c-0.8,0.7-1.5,1.4-2.2,2.2
				v-14.7c0-1.2,0.1-2.1,0.1-2.7c7.2-0.2,13-6.1,13-13.4v-3.9c0-7.4-6-13.4-13.4-13.4h-37c-5.1,0-9.6,2.8-11.9,7.3l-16.6,32.4
				l-16.4-32.4c-2.3-4.5-6.9-7.4-12-7.4H71.7c-7.4,0-13.4,6-13.4,13.4v3.9c0,7,5.4,12.8,12.2,13.4c0,0.7,0.1,1.6,0.1,2.8V270
				c0,1.1,0,2,0,2.8c-6.9,0.6-12.3,6.3-12.3,13.4v3.8c0,7.4,6,13.4,13.4,13.4h31.9c7.4,0,13.4-6,13.4-13.4v-3.8c0-0.4,0-0.8-0.1-1.2
				c2,1.2,4.4,1.9,6.8,1.9h5.6c3.4,0,6.6-1.3,9-3.5c-0.2,0.9-0.3,1.9-0.3,2.8v3.8c0,7.4,6,13.4,13.4,13.4h50.2
				c4.4,0,8.4-2.2,10.8-5.5c7.8,4.4,17.1,6.8,27,6.8c10.7,0,20.8-2.8,28.9-7.9c2.3,4,6.6,6.7,11.6,6.7h46.1c0.9,0,1.8-0.1,2.7-0.3
				c0.9,0.2,1.8,0.3,2.7,0.3h45c3.9,0,7.5-1.7,10-4.4c7.4,3.8,15.9,5.7,25.1,5.7c13.7,0,26.3-4.5,35.3-12.8
				c9.3-8.5,14.4-20.5,14.4-33.7C461.1,244.8,456,232.9,446.7,224.4z M103.6,272.7c-0.2,0-0.4,0-0.5,0c-0.1-0.7-0.1-1.6-0.1-2.7
				v-7.3l5.9,11.1C107.2,273.1,105.5,272.7,103.6,272.7z M412.1,262c-0.3-1.2-0.5-2.5-0.8-3.8c-0.3-1.5-0.5-2.9-0.6-4.2
				c0.3,1.2,0.6,2.6,0.8,4C411.8,259.4,412,260.7,412.1,262z M240.2,262c-0.3-1.2-0.5-2.5-0.8-3.8c-0.3-1.5-0.5-2.9-0.6-4.2
				c0.3,1.2,0.6,2.6,0.8,4C239.9,259.4,240.1,260.7,240.2,262z M151.3,260v9.9c0,1.2-0.1,2.1-0.1,2.7c-2.9,0.1-5.6,1.1-7.8,2.8
				L151.3,260z"/>
			<g>
				<path class="st4" d="M201.7,284.6c-8.2,0-11.7-4.4-11.7-14.7v-58.1c0-10.3,3.5-14.7,11.7-14.7c0.8,0,1.5-0.7,1.5-1.5v-3.9
					c0-0.8-0.7-1.5-1.5-1.5h-37c-0.5,0-1,0.3-1.3,0.8l-27.3,53.3l-27-53.3c-0.2-0.5-0.8-0.8-1.3-0.8H71.7c-0.8,0-1.5,0.7-1.5,1.5
					v3.9c0,0.8,0.7,1.5,1.5,1.5c9.1,0,10.9,5.6,10.9,14.7V270c0,11.5-1.4,14.7-10.9,14.7c-0.8,0-1.5,0.7-1.5,1.5v3.8
					c0,0.8,0.7,1.5,1.5,1.5h31.9c0.8,0,1.5-0.7,1.5-1.5v-3.8c0-0.8-0.7-1.5-1.5-1.5c-9.6,0-12.6-3.4-12.6-14.7v-55.6l31.4,59.7
					c0.3,0.5,0.7,0.8,1.3,0.8h5.6c0.5,0,1-0.3,1.3-0.8l32.5-63.3V270c0,10.3-3.5,14.7-11.7,14.7c-0.8,0-1.5,0.7-1.5,1.5v3.8
					c0,0.8,0.7,1.5,1.5,1.5h50.2c0.8,0,1.5-0.7,1.5-1.5v-3.8C203.1,285.3,202.5,284.6,201.7,284.6z"/>
				<path class="st4" d="M239.5,223.5c-22.3,0-37.9,14.2-37.9,34.5s15.6,34.5,37.9,34.5c22.2,0,37.7-14.2,37.7-34.5
					S261.7,223.5,239.5,223.5z M234.9,231.9c0.5-0.1,1-0.1,1.4-0.1c1.7,0,3.2,0.5,4.7,1.6c4.7,3.3,8.4,11.3,10.3,22.6
					c2.8,16.1,0,27-7.3,28.3c-7.3,1.2-13.6-8-16.4-24C224.8,243.8,227.5,233.2,234.9,231.9z"/>
				<path class="st4" d="M376.4,284.6c-8.7,0-9.9-5.5-11.1-14.3l-0.1-0.5c0-0.1-0.7-5.9-2.7-19.8c-2.6-18.3-10.5-26.5-25.7-26.5
					c-8.6,0-15.6,2.8-20.8,8.3V225c0-0.8-0.7-1.5-1.5-1.5h-3.8c-0.4,0-0.7,0.1-1,0.4c-8.2,7.3-22.4,10.6-29.9,10.6
					c-0.8,0-1.5,0.7-1.5,1.5v3.8c0,0.8,0.7,1.5,1.5,1.5c8.9,0,10.6,5.2,10.6,14.7V270c0,9.5-1.7,14.7-10.6,14.7
					c-0.8,0-1.5,0.7-1.5,1.5v3.8c0,0.8,0.7,1.5,1.5,1.5h46.1c0.8,0,1.5-0.7,1.5-1.5v-3.8c0-0.8-0.7-1.5-1.5-1.5
					c-8.5,0-10-4.7-10-14.7v-17c0-4.6,1-15.4,10.4-15.4c7.9,0,9,5.1,10.4,14.2l0.1,0.4c0.8,5.1,2.8,17.8,2.8,17.9
					c0.6,5.6,0.6,9.8-1.5,12.2c-1.4,1.5-3.6,2.3-6.9,2.3c-0.4,0-0.8,0.2-1,0.4s-0.4,0.6-0.4,1v3.8c0,0.8,0.7,1.5,1.5,1.5h45
					c0.8,0,1.5-0.7,1.5-1.5v-3.8C377.9,285.3,377.2,284.6,376.4,284.6z"/>
				<path class="st4" d="M411.4,223.5c-22.3,0-37.9,14.2-37.9,34.5s15.6,34.5,37.9,34.5c22.2,0,37.7-14.2,37.7-34.5
					S433.6,223.5,411.4,223.5z M406.8,231.9c0.5-0.1,1-0.1,1.4-0.1c1.7,0,3.2,0.5,4.7,1.6c4.7,3.3,8.4,11.3,10.3,22.6
					c2.8,16.1,0,27-7.3,28.3c-7.3,1.2-13.6-8-16.4-24C396.7,243.8,399.4,233.2,406.8,231.9z"/>
			</g>
			<path class="st5" d="M305.3,58.4c-6.6,0-12-5.4-12-12s5.4-12,12-12c3.4,0,6.5,1.4,8.6,3.7c4.5,1.3,10.8,3.4,18,6.9
				c-0.8-14.1-12.4-25.2-26.6-25.2c-7.3,0-13.9,2.9-18.7,7.6L70.2,170.6h130.3L320.5,68.3c1.7-1.2,3.3-2.6,4.7-4.1
				c-6.4-3.3-12.1-5.3-16-6.4C308,58.2,306.7,58.4,305.3,58.4z"/>
			<path class="st6" d="M448.5,157.2c0,0-2-11.3-7.5-20.2c-3.1-5-1.7-12.2-1.7-12.2l0.5-5c0,0-0.1-2.6-2.5-2.5
				c-2.4,0.1-7.3,4.3-9.3,9.9c-2,5.5-5.1,16.7-2.4,26.6c2.7,9.9-1.3,18.6-11.1,20.8c-9.8,2.2-19.8-7-18.7-17.1
				c1.1-10.1,4.9-26.5,5.5-30.2c0.6-3.7,2-11.5-0.7-16.2c-1.1-2-1.5-4.8-1.5-7.3c1.9-7.3,0.5-15.4-4.7-21.7
				c-6-7.4-15.5-10.3-24.2-8.3c3.8,4.2,7.5,9,11,14.2c1.1,0.6,2.1,1.5,2.9,2.5c3.9,4.7,3.2,11.7-1.5,15.6
				c-4.7,3.9-11.7,3.2-15.6-1.5c-1.2-1.5-2-3.3-2.3-5c-3.2-4.8-6.7-9.3-10.6-13.4c-4.5,8.4-3.8,19.1,2.7,26.9
				c5.1,6.2,12.6,9.2,20,8.9c1.2,0.3,2.3,0.7,2.9,1.5c1.6,2.2-1.4,8.9-4.6,14.8c-3.3,5.9-13.9,33.7,0.3,51
				c14.2,17.3,45.1,15.9,57.4,5.8C445,184.7,451.4,174.5,448.5,157.2z M380.4,116.2c-7.3,4-16.5,1.4-20.5-5.9
				c-1-1.8-1.6-3.8-1.8-5.7c0.3,0.7,0.6,1.4,0.9,2c4.7,8.5,15.3,11.6,23.8,6.9c0.9-0.5,1.8-1.1,2.6-1.7
				C384.2,113.5,382.5,115.1,380.4,116.2z M415.4,182.2c-13.1,1.7-18.8-11.2-18.8-11.2c7.5,9.2,19.6,8.8,26,4.1
				c6.4-4.7,9.1-12.7,6.4-19.9c-2.7-7.2-2.5-13.4-2.5-13.4c0.2,5.6,4.4,9.8,6.2,20.5C433.8,168.1,428.5,180.5,415.4,182.2z"/>
			<g>
				<path class="st3" d="M184.7,140.1c-1.6,0-3.1-0.7-4.1-2.1c-1.6-2.2-1.2-5.4,1.1-7l70.2-51.3c2.2-1.6,5.4-1.2,7,1.1
					c1.6,2.2,1.2,5.4-1.1,7l-70.2,51.3C186.7,139.8,185.7,140.1,184.7,140.1z"/>
			</g>
			<g>
				<g>
					<path class="st1" d="M375.2,105.2c-2.7,0-5.3-1.3-6.8-3.8C358,84.6,344,71.5,326.9,62.7C314,56,304.1,54.3,304,54.3
						c-4.3-0.7-7.3-4.7-6.6-9.1c0.7-4.3,4.8-7.3,9.1-6.6c1.9,0.3,46.4,7.7,75.5,54.5c2.3,3.7,1.2,8.6-2.6,11
						C378.1,104.9,376.6,105.2,375.2,105.2z"/>
				</g>
			</g>
			<path class="st3" d="M305.3,58.4c-6.6,0-12-5.4-12-12s5.4-12,12-12c3.4,0,6.5,1.4,8.6,3.7c2.8,0.8,6.3,1.9,10.4,3.5
				c-2.1-8.5-9.8-14.8-19-14.8c-10.8,0-19.6,8.8-19.6,19.6S294.5,66,305.3,66c5,0,9.6-1.9,13.1-5c-3.6-1.5-6.7-2.5-9.1-3.3
				C308,58.2,306.7,58.4,305.3,58.4z"/>
			<g>
				<linearGradient id="SVGID_1_" gradientUnits="userSpaceOnUse" x1="176.5976" y1="236.3422" x2="176.5976" y2="285.2681">
					<stop  offset="0" style="stop-color:#868686;stop-opacity:0"/>
					<stop  offset="1" style="stop-color:#6F6F6E;stop-opacity:0.6"/>
				</linearGradient>
				<path class="st7" d="M188.1,270v-1.3c-8-1.3-15.7-2.7-23-4.2v5.5c0,7-1.4,16.3-13.2,16.5v3h49.4v-3
					C189.5,286.3,188.1,277,188.1,270z"/>
				
					<linearGradient id="SVGID_00000011019796325726300730000006189708302609376129_" gradientUnits="userSpaceOnUse" x1="124.6756" y1="236.3422" x2="124.6756" y2="285.2681">
					<stop  offset="0" style="stop-color:#868686;stop-opacity:0"/>
					<stop  offset="1" style="stop-color:#6F6F6E;stop-opacity:0.6"/>
				</linearGradient>
				<path style="fill:url(#SVGID_00000011019796325726300730000006189708302609376129_);" d="M124,272.9h5.1l7.7-14.9
					c-8.8-2.3-16.9-4.6-24.3-6.9L124,272.9z"/>
				
					<linearGradient id="SVGID_00000068653302856870112620000003401638301832211128_" gradientUnits="userSpaceOnUse" x1="87.6312" y1="236.3422" x2="87.6312" y2="285.2681">
					<stop  offset="0" style="stop-color:#868686;stop-opacity:0"/>
					<stop  offset="1" style="stop-color:#6F6F6E;stop-opacity:0.6"/>
				</linearGradient>
				<path style="fill:url(#SVGID_00000068653302856870112620000003401638301832211128_);" d="M89.2,270v-26.7
					c-1.7-0.6-3.3-1.2-4.8-1.8V270c0,11.1-1.2,16.4-12.3,16.5v3h31.1v-3C92.9,286.4,89.2,282,89.2,270z"/>
				
					<linearGradient id="SVGID_00000008860394108887633600000008139137953928483771_" gradientUnits="userSpaceOnUse" x1="237.9094" y1="236.3422" x2="237.9094" y2="285.2681">
					<stop  offset="0" style="stop-color:#868686;stop-opacity:0"/>
					<stop  offset="1" style="stop-color:#6F6F6E;stop-opacity:0.6"/>
				</linearGradient>
				<path style="fill:url(#SVGID_00000008860394108887633600000008139137953928483771_);" d="M244.4,286c-0.6,0.1-1.1,0.1-1.7,0.1
					c-5.3,0-9.8-4.3-13.1-12.1c-8.1-0.8-15.9-1.7-23.4-2.7c5.2,11.8,17.5,19.4,33.3,19.4c13.2,0,24-5.3,30.1-13.9
					c-5.5-0.2-10.9-0.5-16.3-0.8C251.9,281.7,248.9,285.2,244.4,286z"/>
				
					<linearGradient id="SVGID_00000098219511888863759210000014416453614455302538_" gradientUnits="userSpaceOnUse" x1="353.9061" y1="236.3422" x2="353.9061" y2="285.2681">
					<stop  offset="0" style="stop-color:#868686;stop-opacity:0"/>
					<stop  offset="1" style="stop-color:#6F6F6E;stop-opacity:0.6"/>
				</linearGradient>
				<path style="fill:url(#SVGID_00000098219511888863759210000014416453614455302538_);" d="M364,274.4c-7.5,0.6-14.8,1.2-22,1.6
					c-0.1,3.2-0.7,5.7-2.3,7.6c-1.7,1.9-4.2,2.8-7.9,2.9v3H376v-3C367.3,286.3,365.1,280.7,364,274.4z"/>
				
					<linearGradient id="SVGID_00000101817745022854433540000005732434525206556598_" gradientUnits="userSpaceOnUse" x1="303.0481" y1="236.3422" x2="303.0481" y2="285.2681">
					<stop  offset="0" style="stop-color:#868686;stop-opacity:0"/>
					<stop  offset="1" style="stop-color:#6F6F6E;stop-opacity:0.6"/>
				</linearGradient>
				<path style="fill:url(#SVGID_00000101817745022854433540000005732434525206556598_);" d="M314.7,277.1
					c-7.7,0.2-15.3,0.2-22.8,0.2c-1,5.1-3.8,9-11.5,9.2v3h45.3v-3C318.2,286.3,315.6,282.4,314.7,277.1z"/>
				
					<linearGradient id="SVGID_00000024689421212581421790000018412574015323484054_" gradientUnits="userSpaceOnUse" x1="412.9165" y1="236.3422" x2="412.9165" y2="285.2681">
					<stop  offset="0" style="stop-color:#868686;stop-opacity:0"/>
					<stop  offset="1" style="stop-color:#6F6F6E;stop-opacity:0.6"/>
				</linearGradient>
				<path style="fill:url(#SVGID_00000024689421212581421790000018412574015323484054_);" d="M426.2,266.6
					c0.2,11.2-3.3,18.2-10,19.4c-0.6,0.1-1.1,0.1-1.7,0.1c-6,0-11.1-5.6-14.5-15.7c-7.2,1-14.3,1.8-21.3,2.5
					c5.6,10.9,17.4,17.7,32.6,17.7c19.3,0,33.3-11.2,35.5-27.8C440,264.3,433.1,265.5,426.2,266.6z"/>
			</g>
		</g>
		<g>
			<path class="st14" d="M232.5,374.1h-3.7c-0.1,0-0.1-0.1-0.2-0.1l3.5-0.6c-0.8-1.6-2.5-2.7-4.5-2.7h-8.6c-2.2,0-4.1,1.4-4.8,3.4
				h-1.4h0h-3.7c-0.1-0.1-0.1-0.1-0.2-0.1l3.4-0.8c-0.9-1.5-2.5-2.5-4.3-2.5h-8.6c-2.2,0-4.1,1.4-4.8,3.4h-1.5h-1.4h0h-3.7
				c-0.1,0-0.1-0.1-0.2-0.1l3.5-0.6c-0.8-1.6-2.5-2.7-4.5-2.7h-8.6c-2.2,0-4.1,1.4-4.8,3.4h-1.4h0h-3.7c-0.1-0.1-0.1-0.1-0.2-0.1
				l3.4-0.8c-0.9-1.5-2.5-2.5-4.3-2.5h-8.6c-2.2,0-4.1,1.4-4.8,3.4h-1.5H151h0h-3.7c-0.1,0-0.1-0.1-0.2-0.1l3.5-0.6
				c-0.8-1.6-2.5-2.7-4.5-2.7h-8.6c-2.2,0-4.1,1.4-4.8,3.4h-1.4h0h-3.7c-0.1-0.1-0.1-0.1-0.2-0.1l3.4-0.8c-0.9-1.5-2.5-2.5-4.3-2.5
				h-8.6c-2.2,0-4.1,1.4-4.8,3.4h-1.5h-1.4h0h-3.7c-0.1,0-0.1-0.1-0.2-0.1l3.5-0.6c-0.8-1.6-2.5-2.7-4.5-2.7h-8.6
				c-2.2,0-4.1,1.4-4.8,3.4h-1.4h0h-3.7c-0.1-0.1-0.1-0.1-0.2-0.1l3.4-0.8c-0.9-1.5-2.5-2.5-4.3-2.5h-8.6c-2.2,0-4.1,1.4-4.8,3.4
				h-1.5v3h1.5h0H76c0,0,0.1,0.1,0.1,0.1l-3.5,0.6c0.8,1.6,2.5,2.7,4.5,2.7h8.6c2.2,0,4.1-1.4,4.8-3.4h1.4h0h3.7
				c0.1,0,0.1,0.1,0.2,0.1l-3.4,0.8c0.9,1.5,2.5,2.5,4.3,2.5h8.6c2.2,0,4.1-1.4,4.8-3.4h1.4h1.5h0h3.7c0,0,0.1,0.1,0.1,0.1l-3.5,0.6
				c0.8,1.6,2.5,2.7,4.5,2.7h8.6c2.2,0,4.1-1.4,4.8-3.4h1.4h0h3.7c0.1,0,0.1,0.1,0.2,0.1l-3.4,0.8c0.9,1.5,2.5,2.5,4.3,2.5h8.6
				c2.2,0,4.1-1.4,4.8-3.4h1.4h1.5h0h3.7c0,0,0.1,0.1,0.1,0.1l-3.5,0.6c0.8,1.6,2.5,2.7,4.5,2.7h8.6c2.2,0,4.1-1.4,4.8-3.4h1.4h0
				h3.7c0.1,0,0.1,0.1,0.2,0.1L174,378c0.9,1.5,2.5,2.5,4.3,2.5h8.6c2.2,0,4.1-1.4,4.8-3.4h1.4h1.5h0h3.7c0,0,0.1,0.1,0.1,0.1
				l-3.5,0.6c0.8,1.6,2.5,2.7,4.5,2.7h8.6c2.2,0,4.1-1.4,4.8-3.4h1.4h0h3.7c0.1,0,0.1,0.1,0.2,0.1l-3.4,0.8c0.9,1.5,2.5,2.5,4.3,2.5
				h8.6c2.2,0,4.1-1.4,4.8-3.4h1.4v-3H232.5L232.5,374.1z M75.6,373.2c-0.3,0.2-0.5,0.4-0.7,0.6c-0.1,0.1-0.2,0.2-0.2,0.3h-1
				c0-0.1,0.1-0.2,0.1-0.4c0.1-0.2,0.2-0.4,0.3-0.5c0.2-0.4,0.6-0.7,1-0.9c0.4-0.2,0.9-0.3,1.3-0.4c0.2,0,0.4,0,0.6,0
				c0.2,0,0.3,0.1,0.5,0.1c0.6,0.1,1,0.3,1,0.3s-0.4,0.2-1,0.3c-0.1,0-0.3,0.1-0.5,0.1c-0.2,0-0.3,0.1-0.5,0.1
				C76.2,372.9,75.9,373,75.6,373.2z M76,377.1h1c0.9,0,1.6-0.7,1.6-1.5c0-0.4-0.2-0.8-0.5-1.1c-0.3-0.3-0.7-0.4-1.1-0.4h-1
				c0.3-0.2,0.7-0.4,1.1-0.4h8.6c0.4,0,0.8,0.1,1.1,0.4h-1.2c-0.4,0-0.8,0.2-1.1,0.4c-0.3,0.3-0.5,0.7-0.5,1.1
				c0,0.8,0.7,1.5,1.6,1.5h1.2c-0.3,0.2-0.7,0.4-1.1,0.4h-8.6C76.7,377.5,76.3,377.3,76,377.1z M89.1,377.7
				c-0.1,0.2-0.2,0.4-0.4,0.6c-0.3,0.4-0.8,0.7-1.3,0.8c-0.3,0.1-0.5,0.1-0.8,0.2c-0.2,0-0.5,0-0.7,0c-0.2,0-0.4,0-0.6-0.1
				c-0.2,0-0.4-0.1-0.5-0.1c-0.7-0.1-1.1-0.3-1.1-0.3s0.5-0.1,1.1-0.2c0.2,0,0.4-0.1,0.5-0.1c0.2,0,0.4-0.1,0.6-0.1
				c0.2,0,0.4,0,0.6-0.1c0.2,0,0.4-0.1,0.5-0.2c0.2-0.1,0.3-0.2,0.5-0.3c0.1-0.1,0.3-0.2,0.4-0.3c0.1-0.1,0.2-0.2,0.3-0.4
				c0,0,0,0,0,0h1.1C89.3,377.3,89.2,377.5,89.1,377.7z M95.2,373.2c-0.3,0.2-0.5,0.4-0.7,0.6c-0.1,0.1-0.2,0.2-0.2,0.3h-1
				c0-0.1,0.1-0.2,0.1-0.4c0.1-0.2,0.2-0.4,0.3-0.5c0.2-0.4,0.6-0.7,1-0.9c0.4-0.2,0.9-0.3,1.3-0.4c0.2,0,0.4,0,0.6,0
				c0.2,0,0.3,0.1,0.5,0.1c0.6,0.1,1,0.3,1,0.3s-0.4,0.2-1,0.3c-0.1,0-0.3,0.1-0.5,0.1c-0.2,0-0.3,0.1-0.5,0.1
				C95.8,372.9,95.5,373,95.2,373.2z M95.6,377.1h1.2c0.4,0,0.8-0.2,1.1-0.4c0.3-0.3,0.5-0.7,0.5-1.1c0-0.8-0.7-1.5-1.6-1.5h-1.2
				c0.3-0.2,0.7-0.4,1.1-0.4h8.6c0.4,0,0.8,0.1,1.1,0.4h-1.2c-0.4,0-0.8,0.2-1.1,0.4c-0.3,0.3-0.5,0.7-0.5,1.1
				c0,0.8,0.7,1.5,1.6,1.5h1.2c-0.3,0.2-0.7,0.4-1.1,0.4h-8.6C96.3,377.5,95.9,377.3,95.6,377.1z M108.7,377.7
				c-0.1,0.2-0.2,0.4-0.4,0.6c-0.3,0.4-0.8,0.7-1.3,0.8c-0.3,0.1-0.5,0.1-0.8,0.2c-0.2,0-0.5,0-0.7,0c-0.2,0-0.4,0-0.6-0.1
				c-0.2,0-0.4-0.1-0.5-0.1c-0.7-0.1-1.1-0.3-1.1-0.3s0.5-0.1,1.1-0.2c0.2,0,0.4-0.1,0.5-0.1c0.2,0,0.4-0.1,0.6-0.1
				c0.2,0,0.4,0,0.6-0.1c0.2,0,0.4-0.1,0.5-0.2c0.2-0.1,0.3-0.2,0.5-0.3c0.1-0.1,0.3-0.2,0.4-0.3c0.1-0.1,0.2-0.2,0.3-0.4
				c0,0,0,0,0,0h1.1C108.9,377.3,108.8,377.5,108.7,377.7z M116.4,373.2c-0.3,0.2-0.5,0.4-0.7,0.6c-0.1,0.1-0.2,0.2-0.2,0.3h-1
				c0-0.1,0.1-0.2,0.1-0.4c0.1-0.2,0.2-0.4,0.3-0.5c0.2-0.4,0.6-0.7,1-0.9c0.4-0.2,0.9-0.3,1.3-0.4c0.2,0,0.4,0,0.6,0
				c0.2,0,0.3,0.1,0.5,0.1c0.6,0.1,1,0.3,1,0.3s-0.4,0.2-1,0.3c-0.1,0-0.3,0.1-0.5,0.1c-0.2,0-0.3,0.1-0.5,0.1
				C116.9,372.9,116.6,373,116.4,373.2z M116.8,377.1h1c0.9,0,1.6-0.7,1.6-1.5c0-0.4-0.2-0.8-0.5-1.1c-0.3-0.3-0.7-0.4-1.1-0.4h-1
				c0.3-0.2,0.7-0.4,1.1-0.4h8.6c0.4,0,0.8,0.1,1.1,0.4h-1.2c-0.4,0-0.8,0.2-1.1,0.4c-0.3,0.3-0.5,0.7-0.5,1.1
				c0,0.8,0.7,1.5,1.6,1.5h1.2c-0.3,0.2-0.7,0.4-1.1,0.4h-8.6C117.5,377.5,117.1,377.3,116.8,377.1z M129.9,377.7
				c-0.1,0.2-0.2,0.4-0.4,0.6c-0.3,0.4-0.8,0.7-1.3,0.8c-0.3,0.1-0.5,0.1-0.8,0.2c-0.2,0-0.5,0-0.7,0c-0.2,0-0.4,0-0.6-0.1
				c-0.2,0-0.4-0.1-0.5-0.1c-0.7-0.1-1.1-0.3-1.1-0.3s0.5-0.1,1.1-0.2c0.2,0,0.4-0.1,0.5-0.1c0.2,0,0.4-0.1,0.6-0.1
				c0.2,0,0.4,0,0.6-0.1c0.2,0,0.4-0.1,0.5-0.2c0.2-0.1,0.3-0.2,0.5-0.3c0.1-0.1,0.3-0.2,0.4-0.3c0.1-0.1,0.2-0.2,0.3-0.4
				c0,0,0,0,0,0h1.1C130,377.3,130,377.5,129.9,377.7z M136,373.2c-0.3,0.2-0.5,0.4-0.7,0.6c-0.1,0.1-0.2,0.2-0.2,0.3h-1
				c0-0.1,0.1-0.2,0.1-0.4c0.1-0.2,0.2-0.4,0.3-0.5c0.2-0.4,0.6-0.7,1-0.9c0.4-0.2,0.9-0.3,1.3-0.4c0.2,0,0.4,0,0.6,0
				c0.2,0,0.3,0.1,0.5,0.1c0.6,0.1,1,0.3,1,0.3s-0.4,0.2-1,0.3c-0.1,0-0.3,0.1-0.5,0.1c-0.2,0-0.3,0.1-0.5,0.1
				C136.6,372.9,136.3,373,136,373.2z M136.4,377.1h1.2c0.4,0,0.8-0.2,1.1-0.4c0.3-0.3,0.5-0.7,0.5-1.1c0-0.8-0.7-1.5-1.6-1.5h-1.2
				c0.3-0.2,0.7-0.4,1.1-0.4h8.6c0.4,0,0.8,0.1,1.1,0.4h-1.2c-0.4,0-0.8,0.2-1.1,0.4c-0.3,0.3-0.5,0.7-0.5,1.1
				c0,0.8,0.7,1.5,1.6,1.5h1.2c-0.3,0.2-0.7,0.4-1.1,0.4h-8.6C137.1,377.5,136.7,377.3,136.4,377.1z M149.5,377.7
				c-0.1,0.2-0.2,0.4-0.4,0.6c-0.3,0.4-0.8,0.7-1.3,0.8c-0.3,0.1-0.5,0.1-0.8,0.2c-0.2,0-0.5,0-0.7,0c-0.2,0-0.4,0-0.6-0.1
				c-0.2,0-0.4-0.1-0.5-0.1c-0.7-0.1-1.1-0.3-1.1-0.3s0.5-0.1,1.1-0.2c0.2,0,0.4-0.1,0.5-0.1c0.2,0,0.4-0.1,0.6-0.1
				c0.2,0,0.4,0,0.6-0.1c0.2,0,0.4-0.1,0.5-0.2c0.2-0.1,0.3-0.2,0.5-0.3c0.1-0.1,0.3-0.2,0.4-0.3c0.1-0.1,0.2-0.2,0.3-0.4
				c0,0,0,0,0,0h1.1C149.7,377.3,149.6,377.5,149.5,377.7z M157.1,373.2c-0.3,0.2-0.5,0.4-0.7,0.6c-0.1,0.1-0.2,0.2-0.2,0.3h-1
				c0-0.1,0.1-0.2,0.1-0.4c0.1-0.2,0.2-0.4,0.3-0.5c0.2-0.4,0.6-0.7,1-0.9c0.4-0.2,0.9-0.3,1.3-0.4c0.2,0,0.4,0,0.6,0
				c0.2,0,0.3,0.1,0.5,0.1c0.6,0.1,1,0.3,1,0.3s-0.4,0.2-1,0.3c-0.1,0-0.3,0.1-0.5,0.1c-0.2,0-0.3,0.1-0.5,0.1
				C157.7,372.9,157.4,373,157.1,373.2z M157.6,377.1h1c0.9,0,1.6-0.7,1.6-1.5c0-0.4-0.2-0.8-0.5-1.1c-0.3-0.3-0.7-0.4-1.1-0.4h-1
				c0.3-0.2,0.7-0.4,1.1-0.4h8.6c0.4,0,0.8,0.1,1.1,0.4h-1.2c-0.4,0-0.8,0.2-1.1,0.4c-0.3,0.3-0.5,0.7-0.5,1.1
				c0,0.8,0.7,1.5,1.6,1.5h1.2c-0.3,0.2-0.7,0.4-1.1,0.4h-8.6C158.3,377.5,157.9,377.3,157.6,377.1z M170.7,377.7
				c-0.1,0.2-0.2,0.4-0.4,0.6c-0.3,0.4-0.8,0.7-1.3,0.8c-0.3,0.1-0.5,0.1-0.8,0.2c-0.2,0-0.5,0-0.7,0c-0.2,0-0.4,0-0.6-0.1
				c-0.2,0-0.4-0.1-0.5-0.1c-0.7-0.1-1.1-0.3-1.1-0.3s0.5-0.1,1.1-0.2c0.2,0,0.4-0.1,0.5-0.1c0.2,0,0.4-0.1,0.6-0.1
				c0.2,0,0.4,0,0.6-0.1c0.2,0,0.4-0.1,0.5-0.2c0.2-0.1,0.3-0.2,0.5-0.3c0.1-0.1,0.3-0.2,0.4-0.3c0.1-0.1,0.2-0.2,0.3-0.4
				c0,0,0,0,0,0h1.1C170.8,377.3,170.8,377.5,170.7,377.7z M176.8,373.2c-0.3,0.2-0.5,0.4-0.7,0.6c-0.1,0.1-0.2,0.2-0.2,0.3h-1
				c0-0.1,0.1-0.2,0.1-0.4c0.1-0.2,0.2-0.4,0.3-0.5c0.2-0.4,0.6-0.7,1-0.9c0.4-0.2,0.9-0.3,1.3-0.4c0.2,0,0.4,0,0.6,0
				c0.2,0,0.3,0.1,0.5,0.1c0.6,0.1,1,0.3,1,0.3s-0.4,0.2-1,0.3c-0.1,0-0.3,0.1-0.5,0.1c-0.2,0-0.3,0.1-0.5,0.1
				C177.3,372.9,177,373,176.8,373.2z M177.2,377.1h1.2c0.4,0,0.8-0.2,1.1-0.4c0.3-0.3,0.5-0.7,0.5-1.1c0-0.8-0.7-1.5-1.6-1.5h-1.2
				c0.3-0.2,0.7-0.4,1.1-0.4h8.6c0.4,0,0.8,0.1,1.1,0.4h-1.2c-0.4,0-0.8,0.2-1.1,0.4c-0.3,0.3-0.5,0.7-0.5,1.1
				c0,0.8,0.7,1.5,1.6,1.5h1.2c-0.3,0.2-0.7,0.4-1.1,0.4h-8.6C177.9,377.5,177.5,377.3,177.2,377.1z M190.3,377.7
				c-0.1,0.2-0.2,0.4-0.4,0.6c-0.3,0.4-0.8,0.7-1.3,0.8c-0.3,0.1-0.5,0.1-0.8,0.2c-0.2,0-0.5,0-0.7,0c-0.2,0-0.4,0-0.6-0.1
				c-0.2,0-0.4-0.1-0.5-0.1c-0.7-0.1-1.1-0.3-1.1-0.3s0.5-0.1,1.1-0.2c0.2,0,0.4-0.1,0.5-0.1c0.2,0,0.4-0.1,0.6-0.1
				c0.2,0,0.4,0,0.6-0.1c0.2,0,0.4-0.1,0.5-0.2c0.2-0.1,0.3-0.2,0.5-0.3c0.1-0.1,0.3-0.2,0.4-0.3c0.1-0.1,0.2-0.2,0.3-0.4
				c0,0,0,0,0,0h1.1C190.4,377.3,190.4,377.5,190.3,377.7z M197.9,373.2c-0.3,0.2-0.5,0.4-0.7,0.6c-0.1,0.1-0.2,0.2-0.2,0.3h-1
				c0-0.1,0.1-0.2,0.1-0.4c0.1-0.2,0.2-0.4,0.3-0.5c0.2-0.4,0.6-0.7,1-0.9c0.4-0.2,0.9-0.3,1.3-0.4c0.2,0,0.4,0,0.6,0
				c0.2,0,0.3,0.1,0.5,0.1c0.6,0.1,1,0.3,1,0.3s-0.4,0.2-1,0.3c-0.1,0-0.3,0.1-0.5,0.1c-0.2,0-0.3,0.1-0.5,0.1
				C198.5,372.9,198.2,373,197.9,373.2z M198.3,377.1h1c0.9,0,1.6-0.7,1.6-1.5c0-0.4-0.2-0.8-0.5-1.1c-0.3-0.3-0.7-0.4-1.1-0.4h-1
				c0.3-0.2,0.7-0.4,1.1-0.4h8.6c0.4,0,0.8,0.1,1.1,0.4h-1.2c-0.4,0-0.8,0.2-1.1,0.4c-0.3,0.3-0.5,0.7-0.5,1.1
				c0,0.8,0.7,1.5,1.6,1.5h1.2c-0.3,0.2-0.7,0.4-1.1,0.4h-8.6C199,377.5,198.6,377.3,198.3,377.1z M211.4,377.7
				c-0.1,0.2-0.2,0.4-0.4,0.6c-0.3,0.4-0.8,0.7-1.3,0.8c-0.3,0.1-0.5,0.1-0.8,0.2c-0.2,0-0.5,0-0.7,0c-0.2,0-0.4,0-0.6-0.1
				c-0.2,0-0.4-0.1-0.5-0.1c-0.7-0.1-1.1-0.3-1.1-0.3s0.5-0.1,1.1-0.2c0.2,0,0.4-0.1,0.5-0.1c0.2,0,0.4-0.1,0.6-0.1
				c0.2,0,0.4,0,0.6-0.1c0.2,0,0.4-0.1,0.5-0.2c0.2-0.1,0.3-0.2,0.5-0.3c0.1-0.1,0.3-0.2,0.4-0.3c0.1-0.1,0.2-0.2,0.3-0.4
				c0,0,0,0,0,0h1.1C211.6,377.3,211.5,377.5,211.4,377.7z M217.5,373.2c-0.3,0.2-0.5,0.4-0.7,0.6c-0.1,0.1-0.2,0.2-0.2,0.3h-1
				c0-0.1,0.1-0.2,0.1-0.4c0.1-0.2,0.2-0.4,0.3-0.5c0.2-0.4,0.6-0.7,1-0.9c0.4-0.2,0.9-0.3,1.3-0.4c0.2,0,0.4,0,0.6,0
				c0.2,0,0.3,0.1,0.5,0.1c0.6,0.1,1,0.3,1,0.3s-0.4,0.2-1,0.3c-0.1,0-0.3,0.1-0.5,0.1c-0.2,0-0.3,0.1-0.5,0.1
				C218.1,372.9,217.8,373,217.5,373.2z M218,377.1h1.2c0.4,0,0.8-0.2,1.1-0.4c0.3-0.3,0.5-0.7,0.5-1.1c0-0.8-0.7-1.5-1.6-1.5H218
				c0.3-0.2,0.7-0.4,1.1-0.4h8.6c0.4,0,0.8,0.1,1.1,0.4h-1.2c-0.4,0-0.8,0.2-1.1,0.4c-0.3,0.3-0.5,0.7-0.5,1.1
				c0,0.8,0.7,1.5,1.6,1.5h1.2c-0.3,0.2-0.7,0.4-1.1,0.4h-8.6C218.7,377.5,218.3,377.3,218,377.1z M231.1,377.7
				c-0.1,0.2-0.2,0.4-0.4,0.6c-0.3,0.4-0.8,0.7-1.3,0.8c-0.3,0.1-0.5,0.1-0.8,0.2c-0.2,0-0.5,0-0.7,0c-0.2,0-0.4,0-0.6-0.1
				c-0.2,0-0.4-0.1-0.5-0.1c-0.7-0.1-1.1-0.3-1.1-0.3s0.5-0.1,1.1-0.2c0.2,0,0.4-0.1,0.5-0.1c0.2,0,0.4-0.1,0.6-0.1
				c0.2,0,0.4,0,0.6-0.1c0.2,0,0.4-0.1,0.5-0.2c0.2-0.1,0.3-0.2,0.5-0.3c0.1-0.1,0.3-0.2,0.4-0.3c0.1-0.1,0.2-0.2,0.3-0.4
				c0,0,0,0,0,0h1.1C231.2,377.3,231.2,377.5,231.1,377.7z"/>
			<path class="st14" d="M447.2,374.1L447.2,374.1h-3.7c-0.1,0-0.1-0.1-0.2-0.1l3.5-0.6c-0.8-1.6-2.5-2.7-4.5-2.7h-8.6
				c-2.2,0-4.1,1.4-4.8,3.4h-1.4h0h-3.7c-0.1-0.1-0.1-0.1-0.2-0.1l3.4-0.8c-0.9-1.5-2.5-2.5-4.3-2.5h-8.6c-2.2,0-4.1,1.4-4.8,3.4
				h-1.5h-1.4h0h-3.7c-0.1,0-0.1-0.1-0.2-0.1l3.5-0.6c-0.8-1.6-2.5-2.7-4.5-2.7h-8.6c-2.2,0-4.1,1.4-4.8,3.4h-1.4h0h-3.7
				c-0.1-0.1-0.1-0.1-0.2-0.1l3.4-0.8c-0.9-1.5-2.5-2.5-4.3-2.5h-8.6c-2.2,0-4.1,1.4-4.8,3.4H367h-1.4h0h-3.7
				c-0.1,0-0.1-0.1-0.2-0.1l3.5-0.6c-0.8-1.6-2.5-2.7-4.5-2.7h-8.6c-2.2,0-4.1,1.4-4.8,3.4H346h0h-3.7c-0.1-0.1-0.1-0.1-0.2-0.1
				l3.4-0.8c-0.9-1.5-2.5-2.5-4.3-2.5h-8.6c-2.2,0-4.1,1.4-4.8,3.4h-1.5h-1.4h0h-3.7c-0.1,0-0.1-0.1-0.2-0.1l3.5-0.6
				c-0.8-1.6-2.5-2.7-4.5-2.7h-8.6c-2.2,0-4.1,1.4-4.8,3.4h-1.4h0h-3.7c-0.1-0.1-0.1-0.1-0.2-0.1l3.4-0.8c-0.9-1.5-2.5-2.5-4.3-2.5
				h-8.6c-2.2,0-4.1,1.4-4.8,3.4h-1.5v3h1.5h0h3.7c0,0,0.1,0.1,0.1,0.1l-3.5,0.6c0.8,1.6,2.5,2.7,4.5,2.7h8.6c2.2,0,4.1-1.4,4.8-3.4
				h1.4h0h3.7c0.1,0,0.1,0.1,0.2,0.1L307,378c0.9,1.5,2.5,2.5,4.3,2.5h8.6c2.2,0,4.1-1.4,4.8-3.4h1.4h1.5h0h3.7c0,0,0.1,0.1,0.1,0.1
				l-3.5,0.6c0.8,1.6,2.5,2.7,4.5,2.7h8.6c2.2,0,4.1-1.4,4.8-3.4h1.4h0h3.7c0.1,0,0.1,0.1,0.2,0.1l-3.4,0.8c0.9,1.5,2.5,2.5,4.3,2.5
				h8.6c2.2,0,4.1-1.4,4.8-3.4h1.4h1.5h0h3.7c0,0,0.1,0.1,0.1,0.1l-3.5,0.6c0.8,1.6,2.5,2.7,4.5,2.7h8.6c2.2,0,4.1-1.4,4.8-3.4h1.4
				h0h3.7c0.1,0,0.1,0.1,0.2,0.1l-3.4,0.8c0.9,1.5,2.5,2.5,4.3,2.5h8.6c2.2,0,4.1-1.4,4.8-3.4h1.4h1.5h0h3.7c0,0,0.1,0.1,0.1,0.1
				l-3.5,0.6c0.8,1.6,2.5,2.7,4.5,2.7h8.6c2.2,0,4.1-1.4,4.8-3.4h1.4h0h3.7c0.1,0,0.1,0.1,0.2,0.1l-3.4,0.8c0.9,1.5,2.5,2.5,4.3,2.5
				h8.6c2.2,0,4.1-1.4,4.8-3.4h1.4v-3H447.2z M290.2,373.2c-0.3,0.2-0.5,0.4-0.7,0.6c-0.1,0.1-0.2,0.2-0.2,0.3h-1
				c0-0.1,0.1-0.2,0.1-0.4c0.1-0.2,0.2-0.4,0.3-0.5c0.2-0.4,0.6-0.7,1-0.9c0.4-0.2,0.9-0.3,1.3-0.4c0.2,0,0.4,0,0.6,0
				c0.2,0,0.3,0.1,0.5,0.1c0.6,0.1,1,0.3,1,0.3s-0.4,0.2-1,0.3c-0.1,0-0.3,0.1-0.5,0.1c-0.2,0-0.3,0.1-0.5,0.1
				C290.8,372.9,290.5,373,290.2,373.2z M290.6,377.1h1c0.9,0,1.6-0.7,1.6-1.5c0-0.4-0.2-0.8-0.5-1.1s-0.7-0.4-1.1-0.4h-1
				c0.3-0.2,0.7-0.4,1.1-0.4h8.6c0.4,0,0.8,0.1,1.1,0.4h-1.2c-0.4,0-0.8,0.2-1.1,0.4c-0.3,0.3-0.5,0.7-0.5,1.1
				c0,0.8,0.7,1.5,1.6,1.5h1.2c-0.3,0.2-0.7,0.4-1.1,0.4h-8.6C291.3,377.5,291,377.3,290.6,377.1z M303.7,377.7
				c-0.1,0.2-0.2,0.4-0.4,0.6c-0.3,0.4-0.8,0.7-1.3,0.8c-0.3,0.1-0.5,0.1-0.8,0.2c-0.2,0-0.5,0-0.7,0c-0.2,0-0.4,0-0.6-0.1
				c-0.2,0-0.4-0.1-0.5-0.1c-0.7-0.1-1.1-0.3-1.1-0.3s0.5-0.1,1.1-0.2c0.2,0,0.4-0.1,0.5-0.1c0.2,0,0.4-0.1,0.6-0.1
				c0.2,0,0.4,0,0.6-0.1c0.2,0,0.4-0.1,0.5-0.2c0.2-0.1,0.3-0.2,0.5-0.3c0.1-0.1,0.3-0.2,0.4-0.3c0.1-0.1,0.2-0.2,0.3-0.4
				c0,0,0,0,0,0h1.1C303.9,377.3,303.8,377.5,303.7,377.7z M309.8,373.2c-0.3,0.2-0.5,0.4-0.7,0.6c-0.1,0.1-0.2,0.2-0.2,0.3h-1
				c0-0.1,0.1-0.2,0.1-0.4c0.1-0.2,0.2-0.4,0.3-0.5c0.2-0.4,0.6-0.7,1-0.9c0.4-0.2,0.9-0.3,1.3-0.4c0.2,0,0.4,0,0.6,0
				c0.2,0,0.3,0.1,0.5,0.1c0.6,0.1,1,0.3,1,0.3s-0.4,0.2-1,0.3c-0.1,0-0.3,0.1-0.5,0.1c-0.2,0-0.3,0.1-0.5,0.1
				C310.4,372.9,310.1,373,309.8,373.2z M310.3,377.1h1.2c0.4,0,0.8-0.2,1.1-0.4c0.3-0.3,0.5-0.7,0.5-1.1c0-0.8-0.7-1.5-1.6-1.5
				h-1.2c0.3-0.2,0.7-0.4,1.1-0.4h8.6c0.4,0,0.8,0.1,1.1,0.4H320c-0.4,0-0.8,0.2-1.1,0.4s-0.5,0.7-0.5,1.1c0,0.8,0.7,1.5,1.6,1.5
				h1.2c-0.3,0.2-0.7,0.4-1.1,0.4h-8.6C311,377.5,310.6,377.3,310.3,377.1z M323.4,377.7c-0.1,0.2-0.2,0.4-0.4,0.6
				c-0.3,0.4-0.8,0.7-1.3,0.8c-0.3,0.1-0.5,0.1-0.8,0.2c-0.2,0-0.5,0-0.7,0c-0.2,0-0.4,0-0.6-0.1c-0.2,0-0.4-0.1-0.5-0.1
				c-0.7-0.1-1.1-0.3-1.1-0.3s0.5-0.1,1.1-0.2c0.2,0,0.4-0.1,0.5-0.1c0.2,0,0.4-0.1,0.6-0.1c0.2,0,0.4,0,0.6-0.1
				c0.2,0,0.4-0.1,0.5-0.2c0.2-0.1,0.3-0.2,0.5-0.3c0.1-0.1,0.3-0.2,0.4-0.3c0.1-0.1,0.2-0.2,0.3-0.4c0,0,0,0,0,0h1.1
				C323.5,377.3,323.5,377.5,323.4,377.7z M331,373.2c-0.3,0.2-0.5,0.4-0.7,0.6c-0.1,0.1-0.2,0.2-0.2,0.3h-1c0-0.1,0.1-0.2,0.1-0.4
				c0.1-0.2,0.2-0.4,0.3-0.5c0.2-0.4,0.6-0.7,1-0.9c0.4-0.2,0.9-0.3,1.3-0.4c0.2,0,0.4,0,0.6,0c0.2,0,0.3,0.1,0.5,0.1
				c0.6,0.1,1,0.3,1,0.3s-0.4,0.2-1,0.3c-0.1,0-0.3,0.1-0.5,0.1c-0.2,0-0.3,0.1-0.5,0.1C331.6,372.9,331.3,373,331,373.2z
				 M331.4,377.1h1c0.9,0,1.6-0.7,1.6-1.5c0-0.4-0.2-0.8-0.5-1.1c-0.3-0.3-0.7-0.4-1.1-0.4h-1c0.3-0.2,0.7-0.4,1.1-0.4h8.6
				c0.4,0,0.8,0.1,1.1,0.4h-1.2c-0.4,0-0.8,0.2-1.1,0.4c-0.3,0.3-0.5,0.7-0.5,1.1c0,0.8,0.7,1.5,1.6,1.5h1.2
				c-0.3,0.2-0.7,0.4-1.1,0.4h-8.6C332.1,377.5,331.7,377.3,331.4,377.1z M344.5,377.7c-0.1,0.2-0.2,0.4-0.4,0.6
				c-0.3,0.4-0.8,0.7-1.3,0.8c-0.3,0.1-0.5,0.1-0.8,0.2c-0.2,0-0.5,0-0.7,0c-0.2,0-0.4,0-0.6-0.1c-0.2,0-0.4-0.1-0.5-0.1
				c-0.7-0.1-1.1-0.3-1.1-0.3s0.5-0.1,1.1-0.2c0.2,0,0.4-0.1,0.5-0.1c0.2,0,0.4-0.1,0.6-0.1c0.2,0,0.4,0,0.6-0.1
				c0.2,0,0.4-0.1,0.5-0.2c0.2-0.1,0.3-0.2,0.5-0.3c0.1-0.1,0.3-0.2,0.4-0.3c0.1-0.1,0.2-0.2,0.3-0.4c0,0,0,0,0,0h1.1
				C344.7,377.3,344.6,377.5,344.5,377.7z M350.6,373.2c-0.3,0.2-0.5,0.4-0.7,0.6c-0.1,0.1-0.2,0.2-0.2,0.3h-1
				c0-0.1,0.1-0.2,0.1-0.4c0.1-0.2,0.2-0.4,0.3-0.5c0.2-0.4,0.6-0.7,1-0.9c0.4-0.2,0.9-0.3,1.3-0.4c0.2,0,0.4,0,0.6,0
				c0.2,0,0.3,0.1,0.5,0.1c0.6,0.1,1,0.3,1,0.3s-0.4,0.2-1,0.3c-0.1,0-0.3,0.1-0.5,0.1c-0.2,0-0.3,0.1-0.5,0.1
				C351.2,372.9,350.9,373,350.6,373.2z M351,377.1h1.2c0.4,0,0.8-0.2,1.1-0.4c0.3-0.3,0.5-0.7,0.5-1.1c0-0.8-0.7-1.5-1.6-1.5H351
				c0.3-0.2,0.7-0.4,1.1-0.4h8.6c0.4,0,0.8,0.1,1.1,0.4h-1.2c-0.4,0-0.8,0.2-1.1,0.4c-0.3,0.3-0.5,0.7-0.5,1.1
				c0,0.8,0.7,1.5,1.6,1.5h1.2c-0.3,0.2-0.7,0.4-1.1,0.4h-8.6C351.7,377.5,351.4,377.3,351,377.1z M364.1,377.7
				c-0.1,0.2-0.2,0.4-0.4,0.6c-0.3,0.4-0.8,0.7-1.3,0.8c-0.3,0.1-0.5,0.1-0.8,0.2c-0.2,0-0.5,0-0.7,0c-0.2,0-0.4,0-0.6-0.1
				c-0.2,0-0.4-0.1-0.5-0.1c-0.7-0.1-1.1-0.3-1.1-0.3s0.5-0.1,1.1-0.2c0.2,0,0.4-0.1,0.5-0.1c0.2,0,0.4-0.1,0.6-0.1
				c0.2,0,0.4,0,0.6-0.1c0.2,0,0.4-0.1,0.5-0.2c0.2-0.1,0.3-0.2,0.5-0.3c0.1-0.1,0.3-0.2,0.4-0.3c0.1-0.1,0.2-0.2,0.3-0.4
				c0,0,0,0,0,0h1.1C364.3,377.3,364.2,377.5,364.1,377.7z M371.8,373.2c-0.3,0.2-0.5,0.4-0.7,0.6c-0.1,0.1-0.2,0.2-0.2,0.3h-1
				c0-0.1,0.1-0.2,0.1-0.4c0.1-0.2,0.2-0.4,0.3-0.5c0.2-0.4,0.6-0.7,1-0.9c0.4-0.2,0.9-0.3,1.3-0.4c0.2,0,0.4,0,0.6,0
				c0.2,0,0.3,0.1,0.5,0.1c0.6,0.1,1,0.3,1,0.3s-0.4,0.2-1,0.3c-0.1,0-0.3,0.1-0.5,0.1c-0.2,0-0.3,0.1-0.5,0.1
				C372.4,372.9,372.1,373,371.8,373.2z M372.2,377.1h1c0.9,0,1.6-0.7,1.6-1.5c0-0.4-0.2-0.8-0.5-1.1c-0.3-0.3-0.7-0.4-1.1-0.4h-1
				c0.3-0.2,0.7-0.4,1.1-0.4h8.6c0.4,0,0.8,0.1,1.1,0.4h-1.2c-0.4,0-0.8,0.2-1.1,0.4s-0.5,0.7-0.5,1.1c0,0.8,0.7,1.5,1.6,1.5h1.2
				c-0.3,0.2-0.7,0.4-1.1,0.4h-8.6C372.9,377.5,372.5,377.3,372.2,377.1z M385.3,377.7c-0.1,0.2-0.2,0.4-0.4,0.6
				c-0.3,0.4-0.8,0.7-1.3,0.8c-0.3,0.1-0.5,0.1-0.8,0.2c-0.2,0-0.5,0-0.7,0c-0.2,0-0.4,0-0.6-0.1c-0.2,0-0.4-0.1-0.5-0.1
				c-0.7-0.1-1.1-0.3-1.1-0.3s0.5-0.1,1.1-0.2c0.2,0,0.4-0.1,0.5-0.1c0.2,0,0.4-0.1,0.6-0.1c0.2,0,0.4,0,0.6-0.1
				c0.2,0,0.4-0.1,0.5-0.2c0.2-0.1,0.3-0.2,0.5-0.3c0.1-0.1,0.3-0.2,0.4-0.3c0.1-0.1,0.2-0.2,0.3-0.4c0,0,0,0,0,0h1.1
				C385.5,377.3,385.4,377.5,385.3,377.7z M391.4,373.2c-0.3,0.2-0.5,0.4-0.7,0.6c-0.1,0.1-0.2,0.2-0.2,0.3h-1
				c0-0.1,0.1-0.2,0.1-0.4c0.1-0.2,0.2-0.4,0.3-0.5c0.2-0.4,0.6-0.7,1-0.9c0.4-0.2,0.9-0.3,1.3-0.4c0.2,0,0.4,0,0.6,0
				c0.2,0,0.3,0.1,0.5,0.1c0.6,0.1,1,0.3,1,0.3s-0.4,0.2-1,0.3c-0.1,0-0.3,0.1-0.5,0.1c-0.2,0-0.3,0.1-0.5,0.1
				C392,372.9,391.7,373,391.4,373.2z M391.8,377.1h1.2c0.4,0,0.8-0.2,1.1-0.4c0.3-0.3,0.5-0.7,0.5-1.1c0-0.8-0.7-1.5-1.6-1.5h-1.2
				c0.3-0.2,0.7-0.4,1.1-0.4h8.6c0.4,0,0.8,0.1,1.1,0.4h-1.2c-0.4,0-0.8,0.2-1.1,0.4c-0.3,0.3-0.5,0.7-0.5,1.1
				c0,0.8,0.7,1.5,1.6,1.5h1.2c-0.3,0.2-0.7,0.4-1.1,0.4h-8.6C392.5,377.5,392.1,377.3,391.8,377.1z M404.9,377.7
				c-0.1,0.2-0.2,0.4-0.4,0.6c-0.3,0.4-0.8,0.7-1.3,0.8c-0.3,0.1-0.5,0.1-0.8,0.2c-0.2,0-0.5,0-0.7,0c-0.2,0-0.4,0-0.6-0.1
				c-0.2,0-0.4-0.1-0.5-0.1c-0.7-0.1-1.1-0.3-1.1-0.3s0.5-0.1,1.1-0.2c0.2,0,0.4-0.1,0.5-0.1c0.2,0,0.4-0.1,0.6-0.1
				c0.2,0,0.4,0,0.6-0.1c0.2,0,0.4-0.1,0.5-0.2c0.2-0.1,0.3-0.2,0.5-0.3c0.1-0.1,0.3-0.2,0.4-0.3c0.1-0.1,0.2-0.2,0.3-0.4
				c0,0,0,0,0,0h1.1C405.1,377.3,405,377.5,404.9,377.7z M412.6,373.2c-0.3,0.2-0.5,0.4-0.7,0.6c-0.1,0.1-0.2,0.2-0.2,0.3h-1
				c0-0.1,0.1-0.2,0.1-0.4c0.1-0.2,0.2-0.4,0.3-0.5c0.2-0.4,0.6-0.7,1-0.9c0.4-0.2,0.9-0.3,1.3-0.4c0.2,0,0.4,0,0.6,0
				c0.2,0,0.3,0.1,0.5,0.1c0.6,0.1,1,0.3,1,0.3s-0.4,0.2-1,0.3c-0.1,0-0.3,0.1-0.5,0.1c-0.2,0-0.3,0.1-0.5,0.1
				C413.1,372.9,412.8,373,412.6,373.2z M413,377.1h1c0.9,0,1.6-0.7,1.6-1.5c0-0.4-0.2-0.8-0.5-1.1c-0.3-0.3-0.7-0.4-1.1-0.4h-1
				c0.3-0.2,0.7-0.4,1.1-0.4h8.6c0.4,0,0.8,0.1,1.1,0.4h-1.2c-0.4,0-0.8,0.2-1.1,0.4c-0.3,0.3-0.5,0.7-0.5,1.1
				c0,0.8,0.7,1.5,1.6,1.5h1.2c-0.3,0.2-0.7,0.4-1.1,0.4h-8.6C413.7,377.5,413.3,377.3,413,377.1z M426.1,377.7
				c-0.1,0.2-0.2,0.4-0.4,0.6c-0.3,0.4-0.8,0.7-1.3,0.8c-0.3,0.1-0.5,0.1-0.8,0.2c-0.2,0-0.5,0-0.7,0c-0.2,0-0.4,0-0.6-0.1
				c-0.2,0-0.4-0.1-0.5-0.1c-0.7-0.1-1.1-0.3-1.1-0.3s0.5-0.1,1.1-0.2c0.2,0,0.4-0.1,0.5-0.1c0.2,0,0.4-0.1,0.6-0.1
				c0.2,0,0.4,0,0.6-0.1c0.2,0,0.4-0.1,0.5-0.2c0.2-0.1,0.3-0.2,0.5-0.3c0.1-0.1,0.3-0.2,0.4-0.3c0.1-0.1,0.2-0.2,0.3-0.4
				c0,0,0,0,0,0h1.1C426.2,377.3,426.2,377.5,426.1,377.7z M432.2,373.2c-0.3,0.2-0.5,0.4-0.7,0.6c-0.1,0.1-0.2,0.2-0.2,0.3h-1
				c0-0.1,0.1-0.2,0.1-0.4c0.1-0.2,0.2-0.4,0.3-0.5c0.2-0.4,0.6-0.7,1-0.9c0.4-0.2,0.9-0.3,1.3-0.4c0.2,0,0.4,0,0.6,0
				c0.2,0,0.3,0.1,0.5,0.1c0.6,0.1,1,0.3,1,0.3s-0.4,0.2-1,0.3c-0.1,0-0.3,0.1-0.5,0.1c-0.2,0-0.3,0.1-0.5,0.1
				C432.8,372.9,432.5,373,432.2,373.2z M432.6,377.1h1.2c0.4,0,0.8-0.2,1.1-0.4c0.3-0.3,0.5-0.7,0.5-1.1c0-0.8-0.7-1.5-1.6-1.5
				h-1.2c0.3-0.2,0.7-0.4,1.1-0.4h8.6c0.4,0,0.8,0.1,1.1,0.4h-1.2c-0.4,0-0.8,0.2-1.1,0.4c-0.3,0.3-0.5,0.7-0.5,1.1
				c0,0.8,0.7,1.5,1.6,1.5h1.2c-0.3,0.2-0.7,0.4-1.1,0.4h-8.6C433.3,377.5,432.9,377.3,432.6,377.1z M445.7,377.7
				c-0.1,0.2-0.2,0.4-0.4,0.6c-0.3,0.4-0.8,0.7-1.3,0.8c-0.3,0.1-0.5,0.1-0.8,0.2c-0.2,0-0.5,0-0.7,0c-0.2,0-0.4,0-0.6-0.1
				c-0.2,0-0.4-0.1-0.5-0.1c-0.7-0.1-1.1-0.3-1.1-0.3s0.5-0.1,1.1-0.2c0.2,0,0.4-0.1,0.5-0.1c0.2,0,0.4-0.1,0.6-0.1
				c0.2,0,0.4,0,0.6-0.1c0.2,0,0.4-0.1,0.5-0.2c0.2-0.1,0.3-0.2,0.5-0.3c0.1-0.1,0.3-0.2,0.4-0.3c0.1-0.1,0.2-0.2,0.3-0.4
				c0,0,0,0,0,0h1.1C445.9,377.3,445.8,377.5,445.7,377.7z"/>
		</g>
	</g>
</g>
</svg>
